<!-- by TradingView --><svg width="56" height="56" viewBox="0 0 56 56" xmlns="http://www.w3.org/2000/svg"><path fill="#E92227" d="M0 0h56v56H0z"/><path d="M16.7 16.58a29.64 29.64 0 0 1 13.15-2.14c3.3.18 6.44.89 9.43 2.13.05.02.09 0 .12-.04.22-.37.42-.77.59-1.18.02-.06 0-.1-.05-.12a33.98 33.98 0 0 0-7.34-1.9 31.92 31.92 0 0 0-7.61-.19c-3.1.3-6.07 1-8.94 2.1-.05.01-.06.04-.04.08.18.46.39.87.62 1.24.01.02.03.03.06.02Zm14.34 3.11.3-1.75c.01-.06.05-.1.1-.1.8 0 1.53.03 2.22.12.6.07 1.05.2 1.36.39.4.25.64.63.7 1.15 0 .05.03.06.08.04a7.54 7.54 0 0 0 3.11-2.21c.05-.06.04-.11-.03-.14a24.73 24.73 0 0 0-8.3-1.94.18.18 0 0 0-.16.07l-2.39 2.8c-.02.04-.05.04-.08 0l-2.37-2.79a.21.21 0 0 0-.19-.08c-2.88.18-5.64.82-8.27 1.93a.1.1 0 0 0-.06.07c0 .04 0 .07.02.1a7.53 7.53 0 0 0 3.12 2.2c.04.01.06 0 .07-.04.07-.77.55-1.25 1.43-1.44.85-.18 1.81-.25 2.87-.21.03 0 .05.01.06.04l3.32 17.98c.03.16.06.16.1 0l2.99-16.19ZM16 38h-4c0 .35.3.63.68.63h.97V41h.74v-2.37h.93c.38 0 .68-.28.68-.63Zm1.5 0H21c0 .35-.27.63-.6.63h-2.3a.62.62 0 0 1-.6-.63Zm0 1.18H21c0 .35-.27.64-.6.64h-2.3c-.33 0-.6-.29-.6-.64Zm3.5 1.19h-3.5c0 .35.27.63.6.63h2.3c.33 0 .6-.28.6-.63Zm2.15-1.74h2.2c.36 0 .65-.28.65-.63h-3.5v1.83h2.92v.6H23.1a.57.57 0 0 0-.59.57H26v-1.79h-2.85v-.58Zm4.21-.63v3h2.87c.35 0 .63-.25.63-.57H28V38h-.64ZM32 38h3.5c0 .28-.27.5-.6.5h-2.3c-.34 0-.6-.22-.6-.5Zm0 3v-1.5h3.5V41h-.63v-1h-2.25v1h-.61Zm12-3h-.5v3h.5v-3Zm-1.5 0H39c0 .28.26.5.6.5h2.3c.33 0 .6-.22.6-.5ZM39 39.5V41h.62v-1h2.25v1h.63v-1.5H39Z" fill="#fff"/></svg>